<svg width="56" height="56" xmlns="http://www.w3.org/2000/svg"><g stroke-linecap="round" stroke-linejoin="round" stroke-width="2" fill="none" fill-rule="evenodd"><path stroke="#2088FF" d="M28.017 5v3M36.006 7.013l-1.987 2.024M20.021 7.011l1.988 2.011M28.806 30.23c-2.206-3.88-5.25-2.234-5.25-2.234 1.007 2.24 1.688 3.72 2.742 8.724.957 4.551 3.785 7.409 7.687 7.293l5.028 6.003M29.03 34.057L29 20.007m4.012 9.004V17.005m4.006 11.99l-.003-9.353"/><path d="M18.993 50.038l4.045-5.993s1.03-.262 1.954-.984m-6.983.96c-4.474-.016-6.986-5.558-6.986-9.979 0-1.764-.439-4.997-1.997-8.004 0 0 3.268-1.24 5.747 3.6.904 1.768.458 5.267.642 5.388.185.121 1.336.554 2.637 2.01m4.955-18.92a976.92 976.92 0 010 5.91m-7.995-4.986l-.003 10.97M10.031 48.021l2.369-3.003" stroke="#79B8FF"/><path d="M45.996 47.026l-1.99-2.497-1.993-2.5s2.995-1.485 2.995-6.46V24.033" stroke="#2088FF"/><path d="M41 29v-6a2 2 0 114 0v2m-8-4v-4a2 2 0 114 0v7m-8-7v-2a2 2 0 114 0v2m-8 4v-2a2 2 0 114 0v2" stroke="#2088FF"/><path d="M23 20v-2a2 2 0 013.043-1.707M19 19v-4a2 2 0 114 0v3m-8 3v-2a2 2 0 114 0v10" stroke="#79B8FF"/><path d="M6.7 12c.316 1.122.572 1.372 1.71 1.678-1.136.314-1.39.566-1.7 1.69-.316-1.121-.572-1.372-1.71-1.678 1.135-.314 1.389-.567 1.7-1.69zm42 0c.316 1.122.572 1.372 1.71 1.678-1.136.314-1.39.566-1.7 1.69-.317-1.121-.573-1.372-1.71-1.679 1.135-.313 1.389-.566 1.7-1.689zM28.021 47.627c.317 1.122.573 1.372 1.71 1.678-1.135.314-1.389.566-1.699 1.69-.318-1.121-.573-1.372-1.71-1.679 1.134-.313 1.389-.566 1.699-1.689z" stroke="#2088FF"/></g></svg>