<svg height="56" width="56" xmlns="http://www.w3.org/2000/svg"><g fill="none" fill-rule="evenodd" stroke-width="2" transform="translate(5 4)"><path d="m20.68 33.838v-2.541a2.227 2.227 0 0 1 .37-1.265c-.526-.04-3.84-.37-3.84-4.302 0-1.013.305-1.839.915-2.477a4.989 4.989 0 0 1 -.146-1.86c.087-.882.946-.822 2.577.178 1.277-.47 2.852-.47 4.725 0 .248-.303 2.434-1.703 2.658-.268.047.296.016.946-.093 1.95.516.524.776 1.358.78 2.502.007 2.26-1.26 3.686-3.8 4.277.24.436.355.858.346 1.265a117.22 117.22 0 0 0 0 2.613c2.43-.743 4.228-2.06 5.395-3.95.837-1.355 1.433-2.932 1.433-4.865 0-2.885-1.175-4.983-2.5-6.387-1.786-1.894-4.234-2.798-6.5-2.798a9.094 9.094 0 0 0 -6.588 2.898c-1.384 1.495-2.412 3.61-2.412 6.287 0 2.027.701 3.945 1.773 5.38 1.228 1.644 2.864 2.765 4.907 3.363z" stroke="#2088ff" stroke-linecap="round" stroke-linejoin="round"/><path d="m31.14 35.007h12.86a2 2 0 0 1 2 2v2.032m-46 0v-2.032a2 2 0 0 1 2-2h12.989" stroke="#79b8ff" stroke-linecap="round"/><rect height="4" rx="1.5" stroke="#2088ff" width="46" y="43"/><rect height="4" rx="1.5" stroke="#2088ff" width="38" x="4" y="39"/><g stroke-linecap="round"><path d="m29.05 11h15.45a1.5 1.5 0 0 1 1.5 1.5v1a1.5 1.5 0 0 1 -1.5 1.5h-12.5m-17.954 0h-12.546a1.5 1.5 0 0 1 -1.5-1.5v-1a1.5 1.5 0 0 1 1.5-1.5h15.47" stroke="#79b8ff"/><path d="m39.05 8.064c-3.646-4.894-9.478-8.064-16.05-8.064-6.571 0-12.403 3.17-16.048 8.063" stroke="#2088ff"/><path d="m4 19.028h7" stroke="#79b8ff" stroke-linejoin="round"/><path d="m7 23.028h2" stroke="#2088ff" stroke-linejoin="round"/><path d="m7 27.028h2" stroke="#79b8ff" stroke-linejoin="round"/><path d="m4 31.028h7m31-12h-7" stroke="#2088ff" stroke-linejoin="round"/><path d="m39 23.028h-2" stroke="#79b8ff" stroke-linejoin="round"/><path d="m39 27.028h-2" stroke="#2088ff" stroke-linejoin="round"/><path d="m42 31.028h-7" stroke="#79b8ff" stroke-linejoin="round"/></g><path d="m23 10a2 2 0 1 1 0-4 2 2 0 0 1 0 4z" stroke="#2088ff" stroke-linejoin="round"/><path d="m28 8.015h-3.002m-4.011 0h-2.987" stroke="#2088ff" stroke-linecap="round"/></g></svg>