<svg height="56" width="56" xmlns="http://www.w3.org/2000/svg"><g fill="none" fill-rule="evenodd" transform="translate(5 4)"><g stroke-width="2"><path d="m46 44.557v1a2 2 0 0 1 -2 2h-42a2 2 0 0 1 -2-2v-1" stroke="#79b8ff" stroke-linecap="round" stroke-linejoin="round"/><path d="m.75 40.993.701.561a2.323 2.323 0 0 0 2.903 0l1.675-1.34a3 3 0 0 1 3.748 0l1.282 1.026a3 3 0 0 0 3.71.03l1.4-1.085a3 3 0 0 1 3.75.061l1.103.913a3 3 0 0 0 3.787.031l1.22-.976a3 3 0 0 1 3.748 0l1.282 1.026a3 3 0 0 0 3.71.03l1.4-1.085a3 3 0 0 1 3.75.061l1.429 1.182a2.427 2.427 0 0 0 3.103-.008l.832-.695a2 2 0 0 0 .717-1.534v-1.634a2 2 0 0 0 -2-2h-42a2 2 0 0 0 -2 2v1.875a2 2 0 0 0 .75 1.561z" stroke="#2088ff" stroke-linecap="round" stroke-linejoin="round"/><path d="m42 31.609v.948m-38 0v-.992m25.04-15.008h5.96a2 2 0 0 1 2 2v1m-28 0v-1a2 2 0 0 1 2-2h6.007" stroke="#79b8ff" stroke-linecap="round" stroke-linejoin="round"/><path d="m22 8.557h2a1 1 0 0 1 1 1v6a1 1 0 0 1 -1 1h-2a1 1 0 0 1 -1-1v-6a1 1 0 0 1 1-1z" stroke="#2088ff" stroke-linejoin="round"/><path d="m4.7 10.557c.316 1.122.572 1.372 1.71 1.678-1.136.314-1.39.566-1.7 1.69-.317-1.121-.573-1.372-1.71-1.679 1.135-.313 1.389-.566 1.7-1.689zm35-8c.316 1.122.572 1.372 1.71 1.678-1.136.314-1.39.566-1.7 1.69-.317-1.121-.573-1.372-1.71-1.679 1.135-.313 1.389-.566 1.7-1.689z" stroke="#2088ff" stroke-linecap="round" stroke-linejoin="round"/><path d="m23 5.557a2 2 0 0 0 2-2c0-1.105-.567-3.557-2.727-3.557-.463 0 .21 1.424-.502 1.979a2 2 0 0 0 1.229 3.578z" stroke="#2088ff"/><path d="m4.78 27.982 1.346 1.076a3 3 0 0 0 3.748 0l1.252-1.002a3 3 0 0 1 3.748 0l1.282 1.026a3 3 0 0 0 3.711.03l1.4-1.085a3 3 0 0 1 3.75.061l1.102.913a3 3 0 0 0 3.787.031l1.22-.976a3 3 0 0 1 3.748 0l1.281 1.025a3 3 0 0 0 3.712.029l1.358-1.053a2 2 0 0 0 .775-1.58v-.97a1.95 1.95 0 0 0 -1.95-1.95h-34.108a1.912 1.912 0 0 0 -1.912 1.912v.951a2 2 0 0 0 .75 1.562z" stroke="#2088ff" stroke-linecap="round" stroke-linejoin="round"/></g><circle cx="16.5" cy="2.057" r="1" stroke="#79b8ff"/><circle cx="14.5" cy="12.057" r="1" stroke="#79b8ff"/><circle cx="31.5" cy="9.057" r="1" stroke="#79b8ff"/></g></svg>