<svg viewBox="0 0 50 50" xmlns="http://www.w3.org/2000/svg"><path d="m22.9.14c.71-.08 1.46-.14 2.1-.14a33 33 0 0 1 8.25 1.03c.53.14.86.68.72 1.22-.14.53-.68.86-1.22.72-2.42-.63-5.04-.97-7.75-.97-.53 0-1.19.05-1.87.13a1.002 1.002 0 1 1 -.23-1.99z" fill="#79b8ff"/><path clip-rule="evenodd" d="m47.52 17.11a.998.998 0 0 1 1.28.6c.92 2.5 1.2 5.21 1.2 7.29 0 13.8-11.26 25-25 25-8.09 0-15.17-3.65-19.78-9.37a1.002 1.002 0 1 1 1.56-1.26c3.27 4.05 7.89 6.98 13.25 8.11v-.01c.36-.74.47-1.28.47-1.56 0-1.92-1.48-3.48-3.4-3.68a1.002 1.002 0 0 1 -.77-1.49l.01-.01c.01-.01.02-.03.03-.05.02-.05.06-.12.11-.21.09-.18.21-.44.31-.74.23-.63.37-1.29.3-1.76-.01-.05-.03-.15-.08-.29-.04-.13-.08-.25-.12-.33-.2-.51.05-1.09.57-1.29.51-.2 1.09.05 1.3.57.08.2.25.66.3 1.03.16 1-.13 2.05-.4 2.76-.01.04-.03.07-.04.11 2.23.77 3.87 2.85 3.87 5.38 0 .56-.15 1.22-.44 1.91.97.12 1.95.18 2.95.18 3.66 0 7.12-.86 10.2-2.4-.03-.04-.06-.08-.08-.13a10.92 10.92 0 0 1 -1.11-3.32c-.01-.05-.01-.1-.01-.15v-1c-3.91.11-7-3.11-7-7 0-3.81 3.12-7 7-7h8c2.22 0 4.21 1.12 5.48 2.89.34-1.58.52-3.21.52-4.89h-7c-1.04 0-2.37-.37-3.32-1h-4.74c-2.18-.14-3.94-1.79-3.94-4 0-.59.18-1.16.42-1.62.24-.47.57-.91.94-1.23a.999.999 0 1 1 1.3 1.52c-.14.12-.31.33-.45.61-.15.27-.21.53-.21.72 0 1.02.8 1.91 2.03 2h4.97c.23 0 .45.08.62.22.56.44 1.62.78 2.38.78h6.91c-.13-1.49-.43-3.1-.98-4.61a.993.993 0 0 1 .59-1.28zm-.82 15.51c-.39-.87-.68-1.31-.72-1.37-.91-1.41-2.38-2.25-3.98-2.25h-8c-2.76 0-5 2.28-5 5 0 2.84 2.25 5.09 4.97 5h1.03c.55 0 1 .45 1 1v1.92c.14.82.45 1.79.88 2.61.02.04.04.08.05.12 4.5-2.75 7.99-6.99 9.77-12.03z" fill="#79b8ff" fill-rule="evenodd"/><path d="m1.69 18.03c.54.12.88.65.76 1.19-.2.94-.36 1.9-.46 2.88a1 1 0 1 1 -1.99-.21c.11-1.05.28-2.09.5-3.1.12-.53.65-.88 1.19-.76zm10.4 2.4c.22-.51-.01-1.1-.51-1.32-.51-.22-1.1.01-1.32.51a7.96 7.96 0 0 1 -1.05 1.76.992.992 0 0 0 .18 1.4c.44.34 1.06.26 1.4-.18.52-.65.95-1.38 1.3-2.17z" fill="#79b8ff"/><g fill="#2188ff"><path d="m10.98 7.41c.18-.59.61-1.41 1.64-1.41 1.6 0 1.86 1.12 1.86 2 0 1.57-2.02 3.06-2.93 3.73-.06.04-.11.08-.16.12-.26.19-.55.2-.82 0l-.04-.03c-.9-.64-3.05-2.17-3.05-3.82 0-.89.35-2 1.81-2 .95 0 1.47.82 1.66 1.41.01.06.02.06.03 0z"/><path clip-rule="evenodd" d="m4 1c-1.66 0-3 1.34-3 3v10c0 1.66 1.34 3 3 3h1.01l-.01 1.99a1.003 1.003 0 0 0 1.6.81l3.77-2.8h7.63c1.66 0 3-1.34 3-3v-10c0-1.66-1.34-3-3-3zm-1 3c0-.55.45-1 1-1h14c.55 0 1 .45 1 1v10c0 .55-.45 1-1 1h-7.96c-.21 0-.42.07-.6.2l-2.43 1.8.01-.99c0-.27-.1-.52-.29-.71a1 1 0 0 0 -.71-.3h-2.02c-.55 0-1-.45-1-1z" fill-rule="evenodd"/><path d="m5 30c.55 0 1 .45 1 1s-.45 1-1 1-1-.45-1-1 .45-1 1-1zm5 1c0-.55-.45-1-1-1s-1 .45-1 1 .45 1 1 1 1-.45 1-1z"/><path clip-rule="evenodd" d="m1.25 26.32c.67-.7 1.67-1.32 2.75-1.32h6c1.08 0 2.08.62 2.75 1.32.67.69 1.25 1.67 1.25 2.68v10c0 .38-.21.72-.55.89s-.74.13-1.05-.09l-3.73-2.8h-3.68c-1.62-.02-2.91-.56-3.79-1.53-.85-.95-1.2-2.21-1.2-3.47v-3c0-1.01.58-1.99 1.25-2.68zm1.43 1.39c-.47.49-.68 1-.68 1.29v3c0 .91.25 1.64.69 2.14.43.48 1.14.85 2.31.86h4c.22 0 .43.07.6.2l2.4 1.8v-8c0-.29-.21-.8-.68-1.29-.47-.48-.98-.71-1.32-.71h-6c-.34 0-.85.23-1.32.71z" fill-rule="evenodd"/><path d="m39 9c.55 0 1 .45 1 1s-.45 1-1 1-1-.45-1-1 .45-1 1-1zm5 1c0-.55-.45-1-1-1s-1 .45-1 1 .45 1 1 1 1-.45 1-1z"/><path clip-rule="evenodd" d="m44 4c1.08 0 2.08.62 2.75 1.32.67.69 1.25 1.67 1.25 2.68v3c0 1.26-.35 2.52-1.2 3.47-.87.97-2.16 1.51-3.79 1.53h-3.68l-3.73 2.8c-.3.23-.71.26-1.05.09a.977.977 0 0 1 -.55-.89v-10c0-1.01.58-1.99 1.25-2.68.67-.7 1.67-1.32 2.75-1.32zm2 4c0-.29-.21-.8-.68-1.29-.47-.48-.98-.71-1.32-.71h-6c-.34 0-.85.23-1.32.71-.47.49-.68 1-.68 1.29v8l2.4-1.8c.17-.13.38-.2.6-.2h3.99c1.18-.01 1.89-.39 2.31-.86.45-.5.7-1.23.7-2.14z" fill-rule="evenodd"/></g></svg>