<svg height="51" width="45" xmlns="http://www.w3.org/2000/svg"><g fill="none" fill-rule="evenodd"><g stroke-width="2"><path d="m30.765 10.188c-2.14.016-4.185.745-6.134 2.184-2.925 2.16-3.092 6.816-3.092 6.816s4.358-.479 6.897-3.017c1.692-1.692 2.468-3.687 2.33-5.983zm-.021 12.207c-2.135.019-4.175.828-6.12 2.428-2.918 2.4-3.085 7.572-3.085 7.572s4.349-.532 6.881-3.352c1.688-1.88 2.463-4.096 2.324-6.648zm-18.432 0c2.135.019 4.176.828 6.12 2.428 2.919 2.4 3.086 7.572 3.086 7.572s-4.35-.532-6.882-3.352c-1.688-1.88-2.463-4.096-2.324-6.648zm1.025-12.207c1.903.016 3.72.745 5.453 2.184 2.6 2.16 2.749 6.816 2.749 6.816s-3.875-.479-6.131-3.017c-1.504-1.692-2.194-3.687-2.07-5.983zm15.378-9.188c-1.62.013-3.17.58-4.646 1.7-2.215 1.68-2.342 5.3-2.342 5.3s3.301-.372 5.224-2.346c1.281-1.317 1.869-2.868 1.764-4.654zm-13.327 0c1.426.013 2.79.58 4.09 1.7 1.949 1.68 2.06 5.3 2.06 5.3s-2.905-.372-4.597-2.346c-1.128-1.317-1.646-2.868-1.553-4.654z" stroke="#2088ff" stroke-linejoin="round"/><path d="m21.539 6.863v27.26" stroke="#2088ff" stroke-linecap="round"/><path d="m29.874 43.645c.989-1.74.565-3.028-1.272-3.864-2.755-1.253-8.442-3.052-10.964-3.052-1.68 0-2.968.766-3.86 2.299h-12.778l4.489 4.285 3.894 3.041 13.445 3.041c2.342.668 4.69.668 7.046 0s6.34-2.585 11.953-5.75c.768-.713.963-1.584.586-2.61s-1.54-1.28-3.49-.761l-10.322 3.776-8.19-2.672" stroke="#79b8ff" stroke-linecap="round" stroke-linejoin="round"/><path d="m41.73 34.025a21.18 21.18 0 0 0 2.27-9.568c0-7.52-3.908-14.134-9.815-17.943a10.913 10.913 0 0 0 -1.136-.608m-21.233 0a21.565 21.565 0 0 0 -3.936 2.88" stroke="#79b8ff" stroke-linecap="round"/><path d="m4.7 11c.316 1.122.572 1.372 1.71 1.678-1.136.314-1.39.566-1.7 1.69-.317-1.121-.573-1.372-1.71-1.679 1.135-.313 1.389-.566 1.7-1.689zm28 21c.316 1.122.572 1.372 1.71 1.678-1.136.314-1.39.566-1.7 1.69-.317-1.121-.573-1.372-1.71-1.679 1.135-.313 1.389-.566 1.7-1.689z" stroke="#2088ff" stroke-linecap="round" stroke-linejoin="round"/><path d="m1.839 17.344a19.722 19.722 0 0 0 -.839 5.706c0 3.982 1.182 7.693 3.221 10.816" stroke="#79b8ff" stroke-linecap="round"/></g><path d="m9 32a1 1 0 1 0 0-2 1 1 0 0 0 0 2zm29-3a1 1 0 1 0 0-2 1 1 0 0 0 0 2zm-3-11a1 1 0 1 0 0-2 1 1 0 0 0 0 2z" fill="#79b8ff"/></g></svg>