<?xml version="1.0" standalone="no"?>
<!DOCTYPE svg PUBLIC "-//W3C//DTD SVG 20010904//EN"
 "http://www.w3.org/TR/2001/REC-SVG-20010904/DTD/svg10.dtd">
<svg version="1.0" xmlns="http://www.w3.org/2000/svg"
 width="400.000000pt" height="400.000000pt" viewBox="0 0 400.000000 400.000000"
 preserveAspectRatio="xMidYMid meet">
<metadata>
Created by potrace 1.16, written by Peter Selinger 2001-2019
</metadata>
<g transform="translate(0.000000,400.000000) scale(0.100000,-0.100000)"
fill="#000000" stroke="none">
<path d="M1865 3979 c-486 -37 -921 -237 -1264 -580 -313 -314 -503 -698 -566
-1147 -33 -232 -11 -546 54 -780 203 -732 804 -1283 1559 -1428 122 -24 160
-27 357 -27 196 0 235 3 356 26 403 78 757 265 1044 552 231 231 388 487 489
796 73 226 91 344 90 614 -1 208 -3 242 -28 363 -86 423 -273 764 -584 1064
-279 269 -639 453 -1022 522 -82 15 -321 37 -364 35 -12 -1 -66 -5 -121 -10z
m430 -79 c478 -73 895 -311 1199 -685 281 -344 428 -762 428 -1215 1 -566
-247 -1105 -672 -1463 -352 -297 -786 -457 -1242 -457 -894 0 -1656 592 -1872
1455 -141 564 -14 1178 338 1635 271 353 640 594 1071 699 228 55 514 67 750
31z"/>
<path d="M1780 3733 c-84 -10 -264 -55 -365 -91 -499 -178 -907 -597 -1070
-1099 -67 -204 -80 -293 -80 -538 0 -236 14 -340 69 -515 171 -543 605 -982
1141 -1152 159 -50 286 -71 467 -76 204 -5 314 6 485 49 497 126 915 467 1144
934 65 134 97 226 137 395 25 109 27 129 27 360 0 233 -1 251 -28 370 -52 228
-152 452 -285 640 -86 122 -290 326 -412 412 -106 75 -263 160 -384 208 -89
35 -273 83 -383 99 -67 10 -385 13 -463 4z m73 -654 c168 -42 307 -139 405
-281 18 -27 35 -48 39 -48 3 0 39 17 81 38 76 37 77 37 201 37 121 0 129 -1
194 -32 121 -58 211 -165 251 -302 9 -30 16 -69 16 -87 0 -40 4 -42 86 -60
159 -33 286 -146 340 -304 14 -41 19 -82 19 -165 -1 -96 -4 -118 -28 -174 -53
-127 -131 -204 -260 -259 -61 -26 -68 -27 -314 -30 -252 -4 -253 -3 -253 18 0
57 -35 184 -72 259 -70 144 -203 259 -370 319 -62 22 -90 26 -188 26 -95 1
-128 -3 -188 -23 -228 -75 -417 -300 -440 -523 l-7 -73 -252 -3 c-247 -2 -253
-2 -317 22 -85 32 -137 75 -190 156 -71 109 -88 160 -94 287 -7 176 28 273
138 384 71 72 119 101 225 135 68 21 70 23 78 60 38 185 62 248 134 351 116
165 302 271 523 297 58 6 160 -4 243 -25z m277 -1150 c25 -5 78 -26 119 -46
186 -92 293 -269 294 -488 1 -178 -66 -319 -201 -424 -113 -89 -209 -123 -344
-123 -258 1 -468 165 -533 417 -72 281 106 584 388 660 61 16 213 19 277 4z"/>
<path d="M1729 2903 c-6 -15 -16 -68 -24 -118 -7 -49 -20 -126 -29 -170 -16
-84 -46 -256 -67 -388 -16 -98 -22 -108 -47 -77 -18 22 -26 24 -116 24 -76 1
-99 -2 -106 -14 -18 -28 -4 -35 71 -38 104 -3 116 -7 144 -52 44 -69 70 -50
84 61 6 41 17 110 26 154 8 44 18 96 20 115 6 43 33 195 47 269 12 64 24 53
33 -29 10 -86 16 -110 28 -110 7 0 48 18 92 40 44 22 84 40 88 40 32 0 85 -42
132 -104 28 -39 55 -78 59 -86 4 -8 12 -24 19 -35 58 -94 86 -147 96 -176 6
-19 24 -51 40 -70 l29 -34 127 -4 c132 -3 160 4 135 34 -9 11 -34 15 -105 15
-120 0 -161 16 -171 65 -3 19 -10 35 -14 35 -5 0 -12 10 -16 23 -4 12 -9 24
-13 27 -6 5 -47 78 -65 117 -6 13 -14 23 -18 23 -5 0 -8 6 -8 14 0 8 -3 16 -7
18 -10 4 -63 82 -63 91 0 10 -67 69 -95 84 -44 24 -74 22 -140 -8 -35 -16 -69
-29 -73 -29 -5 0 -12 37 -16 83 -16 201 -48 286 -77 210z"/>
<path d="M1910 1859 c-138 -22 -279 -132 -343 -266 -31 -65 -32 -73 -32 -193
0 -123 1 -126 36 -201 44 -91 82 -136 161 -189 315 -210 728 11 728 391 0 228
-166 423 -390 459 -73 11 -83 11 -160 -1z m178 -151 c8 -8 12 -47 12 -110 l0
-97 103 -3 102 -3 5 -89 c4 -67 2 -93 -8 -103 -9 -9 -43 -13 -108 -13 l-94 0
0 -92 c0 -51 -4 -99 -8 -106 -6 -9 -34 -12 -103 -10 l-94 3 -3 103 -3 102 -94
0 c-118 0 -125 5 -125 101 0 107 2 109 120 109 l100 0 0 98 c0 63 4 102 12
110 7 7 43 12 93 12 50 0 86 -5 93 -12z"/>
</g>
</svg>
