<svg width="56" height="56" xmlns="http://www.w3.org/2000/svg"><g stroke-linecap="round" stroke-width="2" fill="none" fill-rule="evenodd"><g stroke="#79B8FF" stroke-linejoin="round"><path d="M30 52H16.543v-2.998h-4v2.976l-5.537.016a2 2 0 01-2.006-2v-8.033a2 2 0 01.75-1.561l9.261-7.407 5.984 5.143M51 42v10h-5v-2.994h-6V52H30m2-28.988v-.776a7 7 0 013.162-5.854L51 6v36.022"/><path d="M19 35.994v-7.982M25.006 23H33a2 2 0 012 2v1.085m0 10.014V50a2 2 0 01-2 2h-8.987l.011-6.957"/></g><path stroke="#79B8FF" d="M40.013 40.007h6M40.013 35.007h6"/><path stroke="#2088FF" d="M39.015 23.01h6M45 29.011V23M19.019 45.009l25.986-22.003M14 12v6M11 15h6"/><path d="M14 6a9 9 0 110 18 9 9 0 110-18z" stroke="#2088FF" stroke-linejoin="round"/></g></svg>